HIERARCHY
ROOT pelvis
{
  OFFSET 0 100 0
  CHANNELS 6 Xposition Yposition Zposition Zrotation Xrotation Yrotation
  JOINT pelvis_right_femur
  {
    OFFSET -10.78128 -3.44521 -0.5502486
    CHANNELS 3 Zrotation Xrotation Yrotation
    JOINT right_femur_tibia
    {
      OFFSET -0.8047443 -44.0398 -0.1307829
      CHANNELS 3 Zrotation Xrotation Yrotation
      JOINT right_tibia_foot
      {
        OFFSET 3.006224 -47.83518 -5
        CHANNELS 3 Zrotation Xrotation Yrotation
        End Site
        {
          OFFSET 0 -5 15
        }
      }
    }
  }
  JOINT pelvis_left_femur
  {
    OFFSET 10.78128 -3.44521 -0.5502486
    CHANNELS 3 Zrotation Xrotation Yrotation
    JOINT left_femur_tibia
    {
      OFFSET 0.8047443 -44.0398 -0.1307829
      CHANNELS 3 Zrotation Xrotation Yrotation
      JOINT left_tibia_foot
      {
        OFFSET -4.370144 -48.10324 -4.275266
        CHANNELS 3 Zrotation Xrotation Yrotation
        End Site
        {
          OFFSET 0 -5 15
        }
      }
    }
  }
  JOINT pelvis_spine1
  {
    OFFSET 0 6.468898 -3.129235
    CHANNELS 3 Zrotation Xrotation Yrotation
    JOINT spine1
    {
      OFFSET 0 23.15396 4.99043
      CHANNELS 3 Zrotation Xrotation Yrotation
      JOINT spine2
      {
        OFFSET 0 20.79997 -5.064912
        CHANNELS 3 Zrotation Xrotation Yrotation
        JOINT neck
        {
          OFFSET 0 14.38658 9.616178
          CHANNELS 3 Zrotation Xrotation Yrotation
          End Site
          {
            OFFSET 0 20 0
          }
        }
      }
      JOINT right_manubrium
      {
        OFFSET -5.722621 16.35077 3.967754
        CHANNELS 3 Zrotation Xrotation Yrotation
        JOINT right_clavicle
        {
          OFFSET -13.16364 1.694482 -4.693211
          CHANNELS 3 Zrotation Xrotation Yrotation
          JOINT right_humerus
          {
            OFFSET -28.5034 -0.3100689 -2.792744
            CHANNELS 3 Zrotation Xrotation Yrotation
            JOINT right_radius
            {
              OFFSET -25.15693 0.02248979 -1.271978
              CHANNELS 3 Zrotation Xrotation Yrotation
              End Site
              {
                OFFSET -15 0 0
              }
            }
          }
        }
      }
      JOINT left_manubrium
      {
        OFFSET 5.722621 16.35077 3.967754
        CHANNELS 3 Zrotation Xrotation Yrotation
        JOINT left_clavicle
        {
          OFFSET 13.16364 1.694482 -4.693211
          CHANNELS 3 Zrotation Xrotation Yrotation
          JOINT left_humerus
          {
            OFFSET 29.39168 -1.063119 -2.237045
            CHANNELS 3 Zrotation Xrotation Yrotation
            JOINT left_radius
            {
              OFFSET 24.59957 -0.9528479 0.9047498
              CHANNELS 3 Zrotation Xrotation Yrotation
              End Site
              {
                OFFSET 15 -0 -0
              }
            }
          }
        }
      }
    }
  }
}
MOTION
Frames: 11
Frame Time: 0.0416666666667
-1090.286 100.182 2637.424 -4.10023 -3.840311 -52.98928 2.321006 -25.234 -4.397897 -0 6.407626 -0 -5.959355 3.982697 -3.770318 -4.969329 17.36536 -6.815765 -0 22.51168 -0 -0.4236832 -17.98949 13.13399 -1.247455 0.2379427 7.25096 1.350089 9.783816 -8.485223 -0.7435485 23.24425 5.930303 3.610446 -21.94705 5.058175 -5.459331 -23.76703 10.71324 97.56626 34.32886 -21.61387 -0 0 15.50501 -17.87857 1.147125 -1.488641 6.462017 -23.76817 -3.754028 -88.96362 4.427575 21.53708 0 0 -9.565722 22.03859 12.19128 -20.43103
-1096.127 99.80991 2641.33 -4.617851 -3.573729 -53.16508 4.061761 -23.20989 -3.082078 -0 7.332329 -0 -6.178134 4.611769 -4.114472 -4.420886 17.42288 -6.310093 -0 30.00918 -0 -1.038231 -15.43379 13.13084 -1.230648 0.1371751 7.20789 1.412401 9.783258 -8.549131 -0.6511622 23.2731 5.937421 3.328983 -22.48719 5.486649 -5.709695 -24.01749 10.68654 97.99634 34.42359 -21.76979 -0 0 15.40138 -17.91308 1.412105 -1.398991 6.380042 -23.58706 -3.416268 -88.99314 4.492615 21.69298 0 0 -9.257687 22.5499 12.35232 -20.97107
-1102.095 100.1262 2645.193 -5.411532 -3.50722 -53.58008 5.62837 -19.62739 -1.496223 -0 10.04795 -0 -6.486347 4.176952 -4.49809 -3.790648 15.8283 -6.138259 -0 38.76731 -0 -1.957553 -12.38276 13.42277 -1.207961 -0.03874276 7.227139 1.451546 9.96114 -8.554129 -0.5377351 23.26785 5.826597 3.008758 -22.83939 5.804699 -5.838625 -24.46961 10.70969 98.09839 34.23005 -21.56939 -0 0 15.63399 -17.92972 1.875947 -1.07729 6.140504 -23.43038 -3.225952 -89.16211 4.723015 22.30548 0 0 -8.636287 22.77278 12.58849 -20.9905
-1107.953 101.0448 2648.898 -6.252896 -3.708511 -54.238 6.59023 -14.86805 -0.1111223 -0 12.8813 -0 -6.83646 2.489868 -4.751086 -3.209808 12.20901 -6.203265 -0 47.55233 -0 -2.951171 -9.497617 13.94696 -1.19776 -0.2633087 7.321027 1.45257 10.27222 -8.492185 -0.420548 23.23983 5.597657 2.68015 -22.93337 5.957816 -5.849204 -25.09581 10.76562 97.85596 33.82582 -20.99706 -0 0 16.23326 -17.9293 2.428174 -0.5779351 5.774646 -23.29108 -3.190371 -89.45504 5.079808 23.32774 0 0 -7.730887 22.66943 12.86898 -20.49552
-1113.507 102.3031 2652.368 -6.940886 -4.164669 -55.09032 6.805394 -9.531915 0.8058669 -0 14.45913 -0 -7.194227 -0.08437832 -4.722346 -2.735879 6.712753 -6.309876 -0 54.62794 -0 -3.701816 -7.357511 14.6547 -1.202847 -0.51184 7.489087 1.409769 10.66516 -8.364415 -0.3145591 23.19072 5.267674 2.371409 -22.74452 5.923473 -5.758703 -25.85846 10.84145 97.29722 33.26627 -20.08596 -0 0 17.18291 -17.92533 2.997385 0.04899833 5.32092 -23.16706 -3.306182 -89.85539 5.51557 24.69226 0 0 -6.617472 22.22737 13.1661 -19.52315
-1118.674 103.5541 2655.592 -7.37732 -4.725062 -56.04292 6.483925 -4.250937 1.272929 -0 14.33315 -0 -7.506564 -2.884957 -4.365219 -2.257801 0.05277931 -6.237136 -0 58.21303 -0 -3.996681 -6.190992 15.51758 -1.211383 -0.7653452 7.717899 1.328567 11.09517 -8.180888 -0.2303122 23.10991 4.869658 2.109363 -22.29529 5.711909 -5.583269 -26.70993 10.93247 96.47817 32.57755 -18.91084 -0 0 18.42072 -17.93398 3.562638 0.7654952 4.818975 -23.06458 -3.562913 -90.34918 5.983353 26.32089 0 0 -5.400625 21.46036 13.45442 -18.12842
-1123.489 104.486 2658.631 -7.550682 -5.123159 -56.99257 6.025125 0.5181624 1.476602 -0 12.98506 -0 -7.668256 -5.44631 -3.762134 -1.536934 -6.802954 -5.79114 -0 57.15767 -0 -3.858223 -5.798717 16.47257 -1.204701 -1.012127 7.985444 1.222312 11.53078 -7.957298 -0.1729623 22.97923 4.445082 1.917008 -21.6424 5.357715 -5.328258 -27.59671 11.04134 95.46472 31.76889 -17.56974 -0 0 19.85616 -17.96647 4.142272 1.546137 4.305328 -22.99462 -3.943752 -90.92549 6.44316 28.13207 0 0 -4.18568 20.4066 13.70944 -16.37784
-1128.06 104.9035 2661.596 -7.470214 -5.108112 -57.86571 5.753172 4.608017 1.595849 -0 11.27804 -0 -7.538367 -7.775942 -3.068745 -0.3890143 -13.0334 -4.890993 -0 51.47845 -0 -3.516349 -5.741821 17.36276 -1.165362 -1.247199 8.266014 1.107412 11.95422 -7.711521 -0.141925 22.78212 4.034445 1.807932 -20.86235 4.90978 -4.99153 -28.46473 11.17444 94.32478 30.84765 -16.16665 -0 0 21.38712 -18.02835 4.772865 2.374442 3.811036 -22.96712 -4.423957 -91.57143 6.865372 30.03883 0 0 -3.062449 19.12828 13.9097 -14.35387
-1132.523 104.7476 2664.615 -7.144017 -4.610031 -58.63648 5.724606 8.115406 1.710096 -0 9.923304 -0 -7.021514 -10.14574 -2.421225 1.109401 -18.14349 -3.695733 -0 42.45851 -0 -3.258819 -5.647388 17.99294 -1.081279 -1.469975 8.532887 0.9998391 12.35809 -7.462404 -0.1309633 22.51363 3.670157 1.780349 -20.04301 4.424552 -4.577939 -29.26207 11.33716 93.13427 29.8266 -14.80512 -0 0 22.90386 -18.12464 5.488638 3.236823 3.361139 -22.98787 -4.969238 -92.26272 7.232504 31.93701 0 0 -2.108317 17.7125 14.04304 -12.16691
-1137.009 104.0777 2667.798 -6.619971 -3.812483 -59.32245 5.719132 11.25782 1.81742 -0 9.357245 -0 -6.163796 -12.61216 -1.873896 2.549212 -21.90243 -2.646219 -0 32.2634 -0 -3.270998 -5.404278 18.28524 -0.9474975 -1.681151 8.75998 0.9126715 12.74123 -7.229785 -0.1292459 22.18828 3.37282 1.814531 -19.2771 3.961167 -4.114866 -29.94073 11.52883 91.98733 28.72714 -13.58847 -0 0 24.28802 -18.26452 6.302949 4.114229 2.974878 -23.05783 -5.536584 -92.95611 7.540228 33.6963 0 0 -1.395223 16.26999 14.11384 -9.964168
-1141.636 103.045 2671.228 -6.019196 -3.068601 -59.96187 5.405147 14.18372 1.898069 -0 9.913989 -0 -5.173975 -14.70957 -1.410374 3.351314 -24.22457 -2.293554 -0 23.2251 -0 -3.552003 -5.149431 18.36256 -0.768876 -1.87923 8.925266 0.853515 13.104 -7.033048 -0.1245695 21.84193 3.150735 1.87814 -18.64841 3.5732 -3.655189 -30.46048 11.73871 90.99249 27.58774 -12.61307 -0 0 25.42255 -18.45811 7.191279 4.972696 2.665994 -23.17282 -6.07925 -93.59103 7.795567 35.17069 0 0 -0.9812173 14.92498 14.14398 -7.9217
